<svg xmlns="http://www.w3.org/2000/svg" width="37.22" height="57.617" viewBox="0 0 37.22 57.617">
  <g id="Group_33" data-name="Group 33" transform="translate(-204.057 -362.566) rotate(30)">
    <g id="Group_8" data-name="Group 8" transform="translate(372.88 206.894)">
      <path id="Path_10" data-name="Path 10" d="M415.139,254.222a.45.45,0,0,1-.113-.014,6.645,6.645,0,1,1,8.1-4.8.452.452,0,0,1-.11.2l-.189.2a15.559,15.559,0,0,1-7.58,4.4A.454.454,0,0,1,415.139,254.222Zm1.5-12.176A5.616,5.616,0,0,0,414,242.7a5.742,5.742,0,0,0,1.146,10.6,14.657,14.657,0,0,0,7.029-4.117l.106-.111a5.7,5.7,0,0,0-.657-4.238A5.8,5.8,0,0,0,416.64,242.046Zm6.048,7.253h0Z" transform="translate(-410.036 -241.139)" fill="#fff"/>
    </g>
    <g id="Group_9" data-name="Group 9" transform="translate(370.584 204.699)">
      <path id="Path_11" data-name="Path 11" d="M378.857,222.577a.45.45,0,0,1-.113-.014,9.082,9.082,0,1,1,11.069-6.555.452.452,0,0,1-.136.225L387.14,218.5a15.491,15.491,0,0,1-5.569,3.21l-2.574.84A.452.452,0,0,1,378.857,222.577Zm2.1-16.974a8.018,8.018,0,0,0-3.724.913,8.178,8.178,0,0,0,1.611,15.138l2.447-.8a14.594,14.594,0,0,0,5.246-3.024l2.433-2.179a8.135,8.135,0,0,0-5.694-9.718A8.33,8.33,0,0,0,380.957,205.6Zm8.418,10.293h0Z" transform="translate(-371.924 -204.699)" fill="#fff"/>
    </g>
    <g id="Group_10" data-name="Group 10" transform="translate(380.301 209.152)">
      <path id="Path_12" data-name="Path 12" d="M536.2,283.558a.452.452,0,0,1-.451-.432c-.086-1.917-2.348-3.686-2.371-3.7a.452.452,0,0,1,.552-.716c.107.082,2.618,2.041,2.722,4.379a.452.452,0,0,1-.431.472Z" transform="translate(-533.204 -278.613)" fill="#fff"/>
    </g>
    <g id="Group_11" data-name="Group 11" transform="translate(379.549 228.988)">
      <path id="Path_13" data-name="Path 13" d="M532.658,628.167a.452.452,0,0,1-.389-.222l-11.484-19.392a.452.452,0,1,1,.778-.461l11.484,19.392a.452.452,0,0,1-.388.682Z" transform="translate(-520.721 -607.871)" fill="#fff"/>
    </g>
    <g id="Group_12" data-name="Group 12" transform="translate(387.584 215.44)">
      <path id="Path_14" data-name="Path 14" d="M665.206,394.757a.451.451,0,0,1-.346-.161c-.031-.037-3.151-3.727-5.294-5.009a.452.452,0,1,1,.464-.776,28.49,28.49,0,0,1,5.251,4.887l3.123-2.214a19.858,19.858,0,0,0-4.46-4.421,17.665,17.665,0,0,0-4.582-2.34,14.43,14.43,0,0,0-4.8-.833.452.452,0,1,1-.046-.9,15.125,15.125,0,0,1,5.136.88,18.566,18.566,0,0,1,4.816,2.459,20.909,20.909,0,0,1,4.939,5,.452.452,0,0,1-.107.63l-3.831,2.716A.45.45,0,0,1,665.206,394.757Z" transform="translate(-654.086 -382.983)" fill="#fff"/>
    </g>
    <g id="Group_13" data-name="Group 13" transform="translate(391.022 241.726)">
      <path id="Path_15" data-name="Path 15" d="M711.612,822.056a.452.452,0,0,1-.231-.841l3.13-1.854a.452.452,0,0,1,.46.778l-3.13,1.854A.449.449,0,0,1,711.612,822.056Z" transform="translate(-711.16 -819.298)" fill="#fff"/>
    </g>
    <g id="Group_14" data-name="Group 14" transform="translate(377.099 236.298)">
      <path id="Path_16" data-name="Path 16" d="M483.376,735.017a2.8,2.8,0,0,1-2.548-1.631L480.1,731.8a.452.452,0,0,1,.821-.377l.729,1.586a1.9,1.9,0,1,0,3.446-1.583l-.729-1.586a.452.452,0,0,1,.821-.377l.729,1.586a2.8,2.8,0,0,1-2.54,3.969Z" transform="translate(-480.058 -729.199)" fill="#fff"/>
    </g>
    <g id="Group_15" data-name="Group 15" transform="translate(398.251 223.594)">
      <path id="Path_17" data-name="Path 17" d="M834.671,524.493a2.8,2.8,0,0,1-2.251-1.13l-1.178-1.6a.452.452,0,0,1,.728-.536l1.177,1.6a1.9,1.9,0,0,0,3.044-2.262l-1.117-1.517a.452.452,0,0,1,.728-.536l1.116,1.516a2.8,2.8,0,0,1-2.245,4.466Z" transform="translate(-831.153 -518.327)" fill="#fff"/>
    </g>
    <g id="Group_16" data-name="Group 16" transform="translate(380.772 220.889)">
      <path id="Path_18" data-name="Path 18" d="M546.16,487.179a.774.774,0,0,1-.667-.379l-4.36-7.363a.775.775,0,0,1,.271-1.06l8.161-4.833a.774.774,0,0,1,1.06.271l4.361,7.363a.775.775,0,0,1-.271,1.06l-8.161,4.833A.768.768,0,0,1,546.16,487.179Zm-4.183-8.091,4.228,7.139,7.937-4.7-4.228-7.139Zm12.276,2.372Z" transform="translate(-541.025 -473.437)" fill="#fff"/>
    </g>
    <g id="Group_17" data-name="Group 17" transform="translate(389.434 245.209)">
      <path id="Path_19" data-name="Path 19" d="M687.72,886.227a.8.8,0,0,1-.2-.025.788.788,0,0,1-.486-.364l-2.123-3.586a.794.794,0,0,1,.278-1.087l6.654-3.94a.794.794,0,0,1,1.087.278l2.219,3.746a.607.607,0,0,1-.212.83h0l-6.815,4.036A.788.788,0,0,1,687.72,886.227Zm-1.974-4.34,2.011,3.4,6.464-3.828-2.011-3.4Zm8.961-.2h0Zm-.23-.389h0Z" transform="translate(-684.801 -877.114)" fill="#fff"/>
    </g>
    <g id="Group_18" data-name="Group 18" transform="translate(398.883 239.645)">
      <path id="Path_20" data-name="Path 20" d="M844.494,793.933a.611.611,0,0,1-.151-.019.6.6,0,0,1-.371-.278l-2.219-3.747a.794.794,0,0,1,.278-1.087l6.654-3.941a.794.794,0,0,1,1.087.278l2.123,3.586a.794.794,0,0,1-.278,1.087l-6.815,4.036A.6.6,0,0,1,844.494,793.933Zm-1.907-4.41,2.011,3.4,6.464-3.828-2.011-3.4Z" transform="translate(-841.642 -784.751)" fill="#fff"/>
    </g>
    <g id="Group_19" data-name="Group 19" transform="translate(393.022 221.506)">
      <path id="Path_21" data-name="Path 21" d="M756.079,503.607a.452.452,0,0,1-.389-.222l-11.264-19.02a.452.452,0,0,1,.778-.461l11.264,19.02a.452.452,0,0,1-.388.682Z" transform="translate(-744.362 -483.683)" fill="#fff"/>
    </g>
    <g id="Group_20" data-name="Group 20" transform="translate(392.743 237.035)">
      <path id="Path_22" data-name="Path 22" d="M745.54,753.026a.452.452,0,0,1-.389-.222l-5.179-8.745a1.736,1.736,0,0,1,2.987-1.769l4.75,8.02a.452.452,0,1,1-.778.46l-4.75-8.02a.832.832,0,0,0-1.432.848l5.179,8.745a.452.452,0,0,1-.388.682Z" transform="translate(-739.73 -741.439)" fill="#fff"/>
    </g>
    <g id="Group_21" data-name="Group 21" transform="translate(381.817 224.662)">
      <path id="Path_23" data-name="Path 23" d="M558.829,540.2a.452.452,0,0,1-.231-.841l5.462-3.234a.452.452,0,1,1,.46.778l-5.462,3.234A.45.45,0,0,1,558.829,540.2Z" transform="translate(-558.377 -536.066)" fill="#fff"/>
    </g>
    <g id="Group_22" data-name="Group 22" transform="translate(383.431 228.123)">
      <path id="Path_24" data-name="Path 24" d="M585.614,596.21a.452.452,0,0,1-.231-.841l3.038-1.8a.452.452,0,1,1,.46.778l-3.038,1.8A.45.45,0,0,1,585.614,596.21Z" transform="translate(-585.162 -593.507)" fill="#fff"/>
    </g>
    <g id="Group_23" data-name="Group 23" transform="translate(392.744 216.917)">
      <path id="Path_25" data-name="Path 25" d="M740.187,410.052a.452.452,0,0,1-.4-.667l.89-1.646a.452.452,0,0,1,.795.43l-.89,1.646A.452.452,0,0,1,740.187,410.052Z" transform="translate(-739.736 -407.502)" fill="#fff"/>
    </g>
    <g id="Group_24" data-name="Group 24" transform="translate(389.395 226.934)">
      <path id="Path_26" data-name="Path 26" d="M685.461,576.393a1.307,1.307,0,1,1,.664-.182A1.308,1.308,0,0,1,685.461,576.393Zm0-1.711a.4.4,0,0,0-.205.056.4.4,0,1,0,.554.142h0A.4.4,0,0,0,685.458,574.682Z" transform="translate(-684.152 -573.779)" fill="#fff"/>
    </g>
    <g id="Group_25" data-name="Group 25" transform="translate(396.078 237.708)">
      <path id="Path_27" data-name="Path 27" d="M795.524,754.494a.452.452,0,0,1-.231-.841l1.657-.981a.452.452,0,0,1,.46.778l-1.657.981A.45.45,0,0,1,795.524,754.494Z" transform="translate(-795.072 -752.609)" fill="#fff"/>
    </g>
    <g id="Group_26" data-name="Group 26" transform="translate(370.498 218.783)">
      <path id="Path_28" data-name="Path 28" d="M375.529,451.74a.452.452,0,0,1-.389-.222l-4.11-6.942,0-.008a4.047,4.047,0,0,1,.164-4.251,6.984,6.984,0,0,1,1.495-1.743.452.452,0,0,1,.561.709,6.163,6.163,0,0,0-1.292,1.518,3.145,3.145,0,0,0-.143,3.319l4.108,6.938a.452.452,0,0,1-.388.682Z" transform="translate(-370.498 -438.477)" fill="#fff"/>
    </g>
    <g id="Group_27" data-name="Group 27" transform="translate(387.172 209.472)">
      <path id="Path_29" data-name="Path 29" d="M656.785,293.345a.452.452,0,0,1-.389-.222l-3.837-6.479a3.258,3.258,0,0,0-2.889-1.808H649.6a4.156,4.156,0,0,0-1.681.4.452.452,0,0,1-.423-.8,5.074,5.074,0,0,1,2.087-.506,4.121,4.121,0,0,1,3.751,2.25l3.837,6.479a.452.452,0,0,1-.388.682Z" transform="translate(-647.258 -283.933)" fill="#fff"/>
    </g>
    <g id="Group_28" data-name="Group 28" transform="translate(389.476 215.626)">
      <path id="Path_30" data-name="Path 30" d="M689.245,392.6a.45.45,0,0,1-.222-.058,6.608,6.608,0,0,1-3.3-3.9,5.141,5.141,0,0,1-.177-2.192.452.452,0,0,1,.889.165,4.344,4.344,0,0,0,.169,1.818,5.739,5.739,0,0,0,2.868,3.325.452.452,0,0,1-.223.845Z" transform="translate(-685.495 -386.08)" fill="#fff"/>
    </g>
    <g id="Group_29" data-name="Group 29" transform="translate(375.028 221.673)">
      <path id="Path_31" data-name="Path 31" d="M448.224,504.055a.452.452,0,0,1-.406-.254,19.779,19.779,0,0,1-.909-15.8,3.425,3.425,0,0,1,.983-1.461.452.452,0,1,1,.559.71,2.565,2.565,0,0,0-.69,1.053l-.07.2a5.521,5.521,0,0,1,1.5,1.068,6.609,6.609,0,0,1,1.834,4.773c.031,2.488,1.827,6.989,1.845,7.034a.452.452,0,0,1-.222.575l-4.223,2.054A.453.453,0,0,1,448.224,504.055Zm-.813-14.679A18.793,18.793,0,0,0,448.436,503l3.439-1.673c-.175-.461-.478-1.287-.786-2.262a17.681,17.681,0,0,1-.972-4.7,5.738,5.738,0,0,0-1.537-4.113A4.689,4.689,0,0,0,447.41,489.376Z" transform="translate(-445.682 -486.446)" fill="#fff"/>
    </g>
    <g id="Group_30" data-name="Group 30" transform="translate(382.37 237.581)">
      <path id="Path_32" data-name="Path 32" d="M568.007,752.567a.452.452,0,0,1-.231-.841l1.975-1.17a.452.452,0,0,1,.461.778l-1.975,1.169A.45.45,0,0,1,568.007,752.567Z" transform="translate(-567.554 -750.493)" fill="#fff"/>
    </g>
    <g id="Group_31" data-name="Group 31" transform="translate(397.914 228.494)">
      <path id="Path_33" data-name="Path 33" d="M826.013,601.74a.452.452,0,0,1-.231-.841l1.975-1.169a.452.452,0,1,1,.46.778l-1.975,1.17A.45.45,0,0,1,826.013,601.74Z" transform="translate(-825.56 -599.667)" fill="#fff"/>
    </g>
    <g id="Group_32" data-name="Group 32" transform="translate(375.123 227.147)">
      <path id="Path_34" data-name="Path 34" d="M447.714,582.542a.452.452,0,0,1-.045-.9l1.594-.16a24.283,24.283,0,0,1,.094-3.274l-1.569,0h0a.452.452,0,0,1,0-.9l2.073,0a.452.452,0,0,1,.449.51,23.363,23.363,0,0,0-.119,4.043.452.452,0,0,1-.406.482l-2.025.2Z" transform="translate(-447.263 -577.301)" fill="#fff"/>
    </g>
  </g>
</svg>
