<svg xmlns="http://www.w3.org/2000/svg" width="76.249" height="111.145" viewBox="0 0 76.249 111.145">
  <g id="ast" transform="translate(-817.806 -340.244) rotate(-20)">
    <g id="Group_33" data-name="Group 33" transform="translate(661.575 603.509) rotate(30)">
      <g id="Group_8" data-name="Group 8" transform="translate(4.853 4.473)">
        <path id="Path_10" data-name="Path 10" d="M10.4,26.655a.916.916,0,0,1-.23-.029A13.538,13.538,0,0,1,.513,9.856,13.47,13.47,0,0,1,17.19.518a13.468,13.468,0,0,1,9.478,16.336.92.92,0,0,1-.225.407l-.384.4a31.7,31.7,0,0,1-15.443,8.963A.925.925,0,0,1,10.4,26.655ZM13.454,1.849A11.442,11.442,0,0,0,8.069,3.181a11.7,11.7,0,0,0,2.335,21.6A29.861,29.861,0,0,0,24.724,16.4l.215-.227A11.616,11.616,0,0,0,23.6,7.537,11.821,11.821,0,0,0,13.454,1.849ZM25.776,16.626h0Z" transform="translate(0 0)" fill="#c0c0c7" stroke="#c0c0c7" stroke-width="1"/>
      </g>
      <g id="Group_9" data-name="Group 9" transform="translate(0.175 0)">
        <path id="Path_11" data-name="Path 11" d="M14.124,36.424a.918.918,0,0,1-.23-.029A18.5,18.5,0,0,1,.719,13.414,18.419,18.419,0,0,1,23.641.75,18.417,18.417,0,0,1,36.446,23.039a.921.921,0,0,1-.278.459L31,28.128a31.561,31.561,0,0,1-11.346,6.54l-5.245,1.71A.921.921,0,0,1,14.124,36.424ZM18.4,1.842A16.335,16.335,0,0,0,10.816,3.7,16.662,16.662,0,0,0,14.1,34.543l4.986-1.626a29.732,29.732,0,0,0,10.688-6.161l4.956-4.44a16.574,16.574,0,0,0-11.6-19.8A16.972,16.972,0,0,0,18.4,1.842Zm17.151,20.97h0Z" transform="translate(0 0)" fill="#c0c0c7" stroke="#c0c0c7" stroke-width="1"/>
      </g>
      <g id="Group_11" data-name="Group 11" transform="translate(18.439 49.487)">
        <path id="Path_13" data-name="Path 13" d="M24.319,41.35a.921.921,0,0,1-.793-.452L.129,1.39A.921.921,0,1,1,1.713.452L25.11,39.96a.921.921,0,0,1-.791,1.39Z" transform="translate(0 0)" fill="#c0c0c7" stroke="#c0c0c7" stroke-width="1"/>
      </g>
      <g id="Group_12" data-name="Group 12" transform="translate(34.808 21.883)">
        <path id="Path_14" data-name="Path 14" d="M22.655,23.986a.919.919,0,0,1-.7-.328c-.064-.076-6.419-7.594-10.786-10.2a.92.92,0,1,1,.944-1.58c3.9,2.331,9.018,8.024,10.7,9.956l6.363-4.51a40.455,40.455,0,0,0-9.086-9.007,35.983,35.983,0,0,0-9.335-4.767,29.4,29.4,0,0,0-9.782-1.7A.921.921,0,1,1,.874.009,30.816,30.816,0,0,1,11.337,1.8a37.825,37.825,0,0,1,9.812,5.01A42.6,42.6,0,0,1,31.212,17a.921.921,0,0,1-.219,1.283l-7.806,5.533A.917.917,0,0,1,22.655,23.986Z" transform="translate(0 0)" fill="#c0c0c7" stroke="#c0c0c7" stroke-width="1"/>
      </g>
      <g id="Group_13" data-name="Group 13" transform="translate(41.814 75.438)">
        <path id="Path_15" data-name="Path 15" d="M.922,5.618A.921.921,0,0,1,.452,3.9L6.828.128a.92.92,0,0,1,.938,1.584L1.39,5.489A.915.915,0,0,1,.922,5.618Z" transform="translate(0 0)" fill="#c0c0c7" stroke="#c0c0c7" stroke-width="1"/>
      </g>
      <g id="Group_14" data-name="Group 14" transform="translate(13.448 64.379)">
        <path id="Path_16" data-name="Path 16" d="M6.76,11.853A5.712,5.712,0,0,1,1.568,8.53L.084,5.3a.921.921,0,1,1,1.673-.769L3.242,7.761a3.863,3.863,0,0,0,7.021-3.226L8.778,1.305A.921.921,0,0,1,10.451.537l1.484,3.231A5.7,5.7,0,0,1,6.76,11.853Z" transform="translate(0 0)" fill="#c0c0c7" stroke="#c0c0c7" stroke-width="1"/>
      </g>
      <g id="Group_15" data-name="Group 15" transform="translate(56.542 38.496)">
        <path id="Path_17" data-name="Path 17" d="M7.166,12.563a5.7,5.7,0,0,1-4.587-2.3L.179,7A.921.921,0,0,1,1.662,5.908l2.4,3.259a3.863,3.863,0,0,0,6.2-4.609L7.985,1.466A.921.921,0,0,1,9.468.375l2.273,3.088a5.7,5.7,0,0,1-4.575,9.1Z" transform="translate(0 0)" fill="#c0c0c7" stroke="#c0c0c7" stroke-width="1"/>
      </g>
      <g id="Group_16" data-name="Group 16" transform="translate(20.931 32.986)">
        <path id="Path_18" data-name="Path 18" d="M10.462,28A1.577,1.577,0,0,1,9.1,27.225l-8.884-15a1.578,1.578,0,0,1,.553-2.159L17.4.22a1.578,1.578,0,0,1,2.159.553l8.884,15a1.578,1.578,0,0,1-.553,2.159L11.263,27.778A1.565,1.565,0,0,1,10.462,28ZM1.939,11.515l8.613,14.544,16.17-9.576L18.109,1.939Zm25.011,4.833Z" transform="translate(0 0)" fill="#c0c0c7" stroke="#c0c0c7" stroke-width="1"/>
      </g>
      <g id="Group_17" data-name="Group 17" transform="translate(38.578 82.534)">
        <path id="Path_19" data-name="Path 19" d="M5.946,18.566a1.634,1.634,0,0,1-.4-.051,1.6,1.6,0,0,1-.99-.741l-4.326-7.3A1.618,1.618,0,0,1,.793,8.254L14.349.226a1.618,1.618,0,0,1,2.214.567l4.52,7.633a1.236,1.236,0,0,1-.433,1.692h0L6.766,18.34A1.6,1.6,0,0,1,5.946,18.566ZM1.924,9.723l4.1,6.918,13.169-7.8-4.1-6.918Zm18.257-.4h0Zm-.469-.792h0Z" transform="translate(0 0)" fill="#c0c0c7" stroke="#c0c0c7" stroke-width="1"/>
      </g>
      <g id="Group_18" data-name="Group 18" transform="translate(57.83 71.197)">
        <path id="Path_20" data-name="Path 20" d="M5.81,18.707a1.249,1.249,0,0,1-.308-.039,1.227,1.227,0,0,1-.756-.567L.225,10.467A1.618,1.618,0,0,1,.792,8.253L14.349.225a1.618,1.618,0,0,1,2.214.567l4.326,7.3a1.618,1.618,0,0,1-.567,2.214L6.437,18.534A1.227,1.227,0,0,1,5.81,18.707ZM1.924,9.723l4.1,6.918,13.169-7.8-4.1-6.918Z" transform="translate(0 0)" fill="#c0c0c7" stroke="#c0c0c7" stroke-width="1"/>
      </g>
      <g id="Group_19" data-name="Group 19" transform="translate(45.889 34.243)">
        <path id="Path_21" data-name="Path 21" d="M23.87,40.592a.92.92,0,0,1-.793-.452L.129,1.39A.921.921,0,0,1,1.713.452L24.662,39.2a.921.921,0,0,1-.791,1.39Z" transform="translate(0 0)" fill="#c0c0c7" stroke="#c0c0c7" stroke-width="1"/>
      </g>
      <g id="Group_20" data-name="Group 20" transform="translate(45.32 65.881)">
        <path id="Path_22" data-name="Path 22" d="M11.837,23.605a.921.921,0,0,1-.793-.451L.493,5.337a3.536,3.536,0,0,1,6.086-3.6l9.677,16.34a.921.921,0,1,1-1.584.938L4.994,2.672A1.7,1.7,0,0,0,2.077,4.4L12.628,22.216a.921.921,0,0,1-.791,1.39Z" transform="translate(0 0)" fill="#c0c0c7" stroke="#c0c0c7" stroke-width="1"/>
      </g>
      <g id="Group_21" data-name="Group 21" transform="translate(23.061 40.673)">
        <path id="Path_23" data-name="Path 23" d="M.921,8.431a.921.921,0,0,1-.47-1.713L11.579.129a.921.921,0,1,1,.938,1.584L1.39,8.3A.917.917,0,0,1,.921,8.431Z" transform="translate(0 0)" fill="#c0c0c7" stroke="#c0c0c7" stroke-width="1"/>
      </g>
      <g id="Group_22" data-name="Group 22" transform="translate(26.348 47.723)">
        <path id="Path_24" data-name="Path 24" d="M.921,5.506a.921.921,0,0,1-.47-1.713L6.64.128a.921.921,0,1,1,.938,1.584L1.39,5.378A.917.917,0,0,1,.921,5.506Z" transform="translate(0 0)" fill="#c0c0c7" stroke="#c0c0c7" stroke-width="1"/>
      </g>
      <g id="Group_23" data-name="Group 23" transform="translate(45.321 24.893)">
        <path id="Path_25" data-name="Path 25" d="M.92,5.2A.921.921,0,0,1,.111,3.837L1.924.483a.921.921,0,0,1,1.62.876L1.731,4.713A.921.921,0,0,1,.92,5.2Z" transform="translate(0 0)" fill="#c0c0c7" stroke="#c0c0c7" stroke-width="1"/>
      </g>
      <g id="Group_24" data-name="Group 24" transform="translate(38.499 45.302)">
        <path id="Path_26" data-name="Path 26" d="M2.668,5.327a2.662,2.662,0,1,1,1.353-.371A2.666,2.666,0,0,1,2.668,5.327ZM2.662,1.841a.823.823,0,1,0,.71.4h0A.824.824,0,0,0,2.662,1.841Z" transform="translate(0 0)" fill="#c0c0c7" stroke="#c0c0c7" stroke-width="1"/>
      </g>
      <g id="Group_25" data-name="Group 25" transform="translate(52.113 67.252)">
        <path id="Path_27" data-name="Path 27" d="M.922,3.841a.921.921,0,0,1-.47-1.713l3.376-2a.921.921,0,0,1,.938,1.584l-3.376,2A.917.917,0,0,1,.922,3.841Z" transform="translate(0 0)" fill="#c0c0c7" stroke="#c0c0c7" stroke-width="1"/>
      </g>
      <g id="Group_26" data-name="Group 26" transform="translate(0 28.695)">
        <path id="Path_28" data-name="Path 28" d="M10.249,27.022a.92.92,0,0,1-.793-.452L1.082,12.428l-.01-.017A8.246,8.246,0,0,1,1.407,3.75,14.231,14.231,0,0,1,4.452.2.921.921,0,0,1,5.594,1.642,12.556,12.556,0,0,0,2.963,4.736,6.407,6.407,0,0,0,2.671,11.5L11.04,25.632a.921.921,0,0,1-.791,1.39Z" transform="translate(0 0)" fill="#c0c0c7" stroke="#c0c0c7" stroke-width="1"/>
      </g>
      <g id="Group_27" data-name="Group 27" transform="translate(33.97 9.725)">
        <path id="Path_29" data-name="Path 29" d="M19.41,19.176a.92.92,0,0,1-.793-.452L10.8,5.524A6.638,6.638,0,0,0,4.914,1.841H4.776a8.468,8.468,0,0,0-3.425.817A.921.921,0,1,1,.49,1.032,10.338,10.338,0,0,1,4.742,0c2.224-.044,5.354.72,7.642,4.584l7.817,13.2a.921.921,0,0,1-.791,1.39Z" transform="translate(0 0)" fill="#c0c0c7" stroke="#c0c0c7" stroke-width="1"/>
      </g>
      <g id="Group_28" data-name="Group 28" transform="translate(38.663 22.263)">
        <path id="Path_30" data-name="Path 30" d="M7.64,13.288a.916.916,0,0,1-.452-.119A13.464,13.464,0,0,1,.456,5.218,10.474,10.474,0,0,1,.095.751a.921.921,0,0,1,1.81.336,8.849,8.849,0,0,0,.345,3.7,11.692,11.692,0,0,0,5.843,6.774.921.921,0,0,1-.453,1.722Z" transform="translate(0 0)" fill="#c0c0c7" stroke="#c0c0c7" stroke-width="1"/>
      </g>
      <g id="Group_29" data-name="Group 29" transform="translate(9.228 34.582)">
        <path id="Path_31" data-name="Path 31" d="M5.179,35.875a.921.921,0,0,1-.828-.518A40.3,40.3,0,0,1,2.5,3.173,6.978,6.978,0,0,1,4.5.2.921.921,0,1,1,5.64,1.644,5.226,5.226,0,0,0,4.234,3.79c-.048.135-.1.271-.142.406A11.25,11.25,0,0,1,7.142,6.371,13.464,13.464,0,0,1,10.879,16.1c.064,5.07,3.722,14.238,3.758,14.33a.921.921,0,0,1-.452,1.171l-8.6,4.186A.923.923,0,0,1,5.179,35.875ZM3.522,5.969A38.288,38.288,0,0,0,5.612,33.72l7.006-3.408c-.357-.94-.974-2.622-1.6-4.608a36.018,36.018,0,0,1-1.98-9.586,11.691,11.691,0,0,0-3.131-8.38A9.555,9.555,0,0,0,3.522,5.969Z" transform="translate(0 0)" fill="#c0c0c7" stroke="#c0c0c7" stroke-width="1"/>
      </g>
      <g id="Group_30" data-name="Group 30" transform="translate(24.187 66.992)">
        <path id="Path_32" data-name="Path 32" d="M.921,4.224a.921.921,0,0,1-.47-1.713L4.475.128a.921.921,0,0,1,.938,1.584L1.39,4.1A.918.918,0,0,1,.921,4.224Z" transform="translate(0 0)" fill="#c0c0c7" stroke="#c0c0c7" stroke-width="1"/>
      </g>
      <g id="Group_31" data-name="Group 31" transform="translate(55.856 48.48)">
        <path id="Path_33" data-name="Path 33" d="M.922,4.224a.921.921,0,0,1-.47-1.713L4.475.129a.92.92,0,1,1,.938,1.584L1.39,4.1A.916.916,0,0,1,.922,4.224Z" transform="translate(0 0)" fill="#c0c0c7" stroke="#c0c0c7" stroke-width="1"/>
      </g>
      <g id="Group_32" data-name="Group 32" transform="translate(9.422 45.734)">
        <path id="Path_34" data-name="Path 34" d="M.92,10.677A.921.921,0,0,1,.829,8.84l3.248-.326a49.479,49.479,0,0,1,.191-6.671l-3.2.006h0a.921.921,0,0,1,0-1.841L5.293,0a.921.921,0,0,1,.915,1.039,47.6,47.6,0,0,0-.242,8.238.921.921,0,0,1-.826.981l-4.126.414A.891.891,0,0,1,.92,10.677Z" transform="translate(0 0)" fill="#c0c0c7" stroke="#c0c0c7" stroke-width="1"/>
      </g>
    </g>
  </g>
</svg>
