<svg xmlns="http://www.w3.org/2000/svg" width="135.913" height="209.646" viewBox="0 0 135.913 209.646">
  <g id="Group_33" data-name="Group 33" transform="translate(-36.634 53.791) rotate(-30)">
    <g id="Group_8" data-name="Group 8" transform="translate(8.604 124.054)">
      <path id="Path_10" data-name="Path 10" d="M18.431,0a1.625,1.625,0,0,0-.407.052A24,24,0,0,0,.909,29.784,23.881,23.881,0,0,0,30.476,46.34a23.878,23.878,0,0,0,16.8-28.962,1.632,1.632,0,0,0-.4-.722l-.681-.717A56.2,56.2,0,0,0,18.82.047,1.64,1.64,0,0,0,18.431,0Zm5.422,43.979a20.285,20.285,0,0,1-9.547-2.361,20.739,20.739,0,0,1,4.14-38.3A52.941,52.941,0,0,1,43.834,18.187l.382.4A20.6,20.6,0,0,1,41.842,33.9,20.957,20.957,0,0,1,23.853,43.979ZM45.7,17.78h0Z" transform="translate(0 0)" fill="#c0c0c7" stroke="#c0c0c7" stroke-width="1"/>
    </g>
    <g id="Group_9" data-name="Group 9" transform="translate(0.31 114.665)">
      <path id="Path_11" data-name="Path 11" d="M25.041,0a1.626,1.626,0,0,0-.408.052A32.8,32.8,0,0,0,1.274,40.795,32.655,32.655,0,0,0,41.913,63.247a32.651,32.651,0,0,0,22.7-39.517,1.633,1.633,0,0,0-.492-.813l-9.162-8.209a55.955,55.955,0,0,0-20.116-11.6L25.546.08A1.632,1.632,0,0,0,25.041,0Zm7.587,61.311a28.961,28.961,0,0,1-13.451-3.3A29.542,29.542,0,0,1,7.408,16.763,29.344,29.344,0,0,1,24.993,3.334l8.84,2.883a52.713,52.713,0,0,1,18.95,10.923l8.787,7.872A29.385,29.385,0,0,1,41,60.112,30.09,30.09,0,0,1,32.627,61.311ZM63.034,24.133h0Z" transform="translate(0 0)" fill="#c0c0c7" stroke="#c0c0c7" stroke-width="1"/>
    </g>
    <g id="Group_11" data-name="Group 11" transform="translate(32.691 18.195)">
      <path id="Path_13" data-name="Path 13" d="M43.116,0A1.632,1.632,0,0,0,41.71.8L.228,70.846A1.632,1.632,0,1,0,3.037,72.51L44.519,2.464A1.633,1.633,0,0,0,43.116,0Z" transform="translate(0 0)" fill="#c0c0c7" stroke="#c0c0c7" stroke-width="1"/>
    </g>
    <g id="Group_12" data-name="Group 12" transform="translate(61.712 97.919)">
      <path id="Path_14" data-name="Path 14" d="M40.166,0a1.63,1.63,0,0,0-1.249.581C38.8.715,27.535,14.044,19.793,18.672a1.632,1.632,0,1,0,1.674,2.8C28.382,17.341,37.455,7.248,40.434,3.823l11.281,8A71.723,71.723,0,0,1,35.607,27.788a63.8,63.8,0,0,1-16.55,8.451,52.115,52.115,0,0,1-17.342,3.01,1.632,1.632,0,1,0-.167,3.26c.323.017,8.031.366,18.551-3.177A67.061,67.061,0,0,0,37.5,30.45a75.526,75.526,0,0,0,17.84-18.066,1.632,1.632,0,0,0-.387-2.275L41.108.3A1.626,1.626,0,0,0,40.166,0Z" transform="translate(0 0)" fill="#c0c0c7" stroke="#c0c0c7" stroke-width="1"/>
    </g>
    <g id="Group_13" data-name="Group 13" transform="translate(74.132 35.537)">
      <path id="Path_15" data-name="Path 15" d="M1.634,0A1.632,1.632,0,0,0,.8,3.037l11.3,6.7a1.632,1.632,0,1,0,1.663-2.808L2.464.228A1.623,1.623,0,0,0,1.634,0Z" transform="translate(0 0)" fill="#c0c0c7" stroke="#c0c0c7" stroke-width="1"/>
    </g>
    <g id="Group_14" data-name="Group 14" transform="translate(23.841 44.09)">
      <path id="Path_16" data-name="Path 16" d="M11.986,0a10.127,10.127,0,0,0-9.2,5.891L.149,11.618a1.632,1.632,0,1,0,2.966,1.363L5.747,7.253a6.849,6.849,0,0,1,12.447,5.719L15.562,18.7a1.632,1.632,0,0,0,2.966,1.362l2.632-5.728A10.112,10.112,0,0,0,11.986,0Z" transform="translate(0 0)" fill="#c0c0c7" stroke="#c0c0c7" stroke-width="1"/>
    </g>
    <g id="Group_15" data-name="Group 15" transform="translate(100.244 88.719)">
      <path id="Path_17" data-name="Path 17" d="M12.705,0A10.1,10.1,0,0,0,4.573,4.08L.317,9.864A1.632,1.632,0,0,0,2.947,11.8L7.2,6.021a6.849,6.849,0,0,1,10.993,8.171l-4.033,5.481a1.632,1.632,0,0,0,2.629,1.935l4.03-5.475A10.109,10.109,0,0,0,12.705,0Z" transform="translate(0 0)" fill="#c0c0c7" stroke="#c0c0c7" stroke-width="1"/>
    </g>
    <g id="Group_16" data-name="Group 16" transform="translate(37.109 71.123)">
      <path id="Path_18" data-name="Path 18" d="M18.549,0A2.8,2.8,0,0,0,16.14,1.369L.39,27.964a2.8,2.8,0,0,0,.98,3.828L30.847,49.248a2.8,2.8,0,0,0,3.828-.98l15.75-26.595a2.8,2.8,0,0,0-.981-3.828L19.968.389A2.774,2.774,0,0,0,18.549,0ZM3.438,29.223,18.709,3.437,47.377,20.415,32.106,46.2Zm44.343-8.569Z" transform="translate(0 0)" fill="#c0c0c7" stroke="#c0c0c7" stroke-width="1"/>
    </g>
    <g id="Group_17" data-name="Group 17" transform="translate(68.396 0)">
      <path id="Path_19" data-name="Path 19" d="M10.542,0a2.9,2.9,0,0,0-.718.091A2.845,2.845,0,0,0,8.07,1.405L.4,14.356a2.869,2.869,0,0,0,1.005,3.925L25.439,32.515a2.869,2.869,0,0,0,3.926-1.006l8.014-13.532a2.192,2.192,0,0,0-.767-3h0L12,.4A2.843,2.843,0,0,0,10.542,0ZM3.412,15.677,10.675,3.412,34.023,17.239,26.76,29.5Zm32.368.706h0Zm-.832,1.4h0Z" transform="translate(0 0)" fill="#c0c0c7" stroke="#c0c0c7" stroke-width="1"/>
    </g>
    <g id="Group_18" data-name="Group 18" transform="translate(102.527 19.849)">
      <path id="Path_20" data-name="Path 20" d="M10.3,0a2.214,2.214,0,0,0-.547.069A2.175,2.175,0,0,0,8.414,1.074L.4,14.607A2.869,2.869,0,0,0,1.4,18.532L25.439,32.766a2.868,2.868,0,0,0,3.925-1.005l7.67-12.951a2.869,2.869,0,0,0-1.006-3.926L11.413.306A2.176,2.176,0,0,0,10.3,0ZM3.411,15.927,10.674,3.663,34.022,17.489,26.759,29.754Z" transform="translate(0 0)" fill="#c0c0c7" stroke="#c0c0c7" stroke-width="1"/>
    </g>
    <g id="Group_19" data-name="Group 19" transform="translate(81.357 46.564)">
      <path id="Path_21" data-name="Path 21" d="M42.32,0a1.631,1.631,0,0,0-1.406.8L.228,69.5a1.632,1.632,0,0,0,2.809,1.663l40.687-68.7A1.632,1.632,0,0,0,42.32,0Z" transform="translate(0 0)" fill="#c0c0c7" stroke="#c0c0c7" stroke-width="1"/>
    </g>
    <g id="Group_20" data-name="Group 20" transform="translate(80.349 20.589)">
      <path id="Path_22" data-name="Path 22" d="M20.986,0A1.632,1.632,0,0,0,19.58.8L.873,32.388a6.269,6.269,0,0,0,10.789,6.389L28.818,9.808a1.632,1.632,0,0,0-2.809-1.663L8.854,37.114a3.005,3.005,0,0,1-5.172-3.063L22.389,2.464A1.633,1.633,0,0,0,20.986,0Z" transform="translate(0 0)" fill="#c0c0c7" stroke="#c0c0c7" stroke-width="1"/>
    </g>
    <g id="Group_21" data-name="Group 21" transform="translate(40.885 92.184)">
      <path id="Path_23" data-name="Path 23" d="M1.634,0A1.632,1.632,0,0,0,.8,3.037L20.529,14.72a1.632,1.632,0,1,0,1.663-2.809L2.464.228A1.627,1.627,0,0,0,1.634,0Z" transform="translate(0 0)" fill="#c0c0c7" stroke="#c0c0c7" stroke-width="1"/>
    </g>
    <g id="Group_22" data-name="Group 22" transform="translate(46.714 84.869)">
      <path id="Path_24" data-name="Path 24" d="M1.634,0A1.632,1.632,0,0,0,.8,3.037l10.972,6.5a1.632,1.632,0,1,0,1.663-2.809L2.464.228A1.625,1.625,0,0,0,1.634,0Z" transform="translate(0 0)" fill="#c0c0c7" stroke="#c0c0c7" stroke-width="1"/>
    </g>
    <g id="Group_23" data-name="Group 23" transform="translate(80.351 125.898)">
      <path id="Path_25" data-name="Path 25" d="M1.631,0A1.633,1.633,0,0,0,.2,2.409L3.412,8.355A1.632,1.632,0,0,0,6.284,6.8L3.068.856A1.633,1.633,0,0,0,1.631,0Z" transform="translate(0 0)" fill="#c0c0c7" stroke="#c0c0c7" stroke-width="1"/>
    </g>
    <g id="Group_24" data-name="Group 24" transform="translate(68.255 89.48)">
      <path id="Path_26" data-name="Path 26" d="M4.73,0a4.72,4.72,0,1,0,2.4.658A4.726,4.726,0,0,0,4.73,0ZM4.72,6.181a1.459,1.459,0,1,1,1.258-.715h0A1.461,1.461,0,0,1,4.72,6.181Z" transform="translate(0 0)" fill="#c0c0c7" stroke="#c0c0c7" stroke-width="1"/>
    </g>
    <g id="Group_25" data-name="Group 25" transform="translate(92.393 53.2)">
      <path id="Path_27" data-name="Path 27" d="M1.634,0A1.632,1.632,0,0,0,.8,3.037L6.786,6.581A1.632,1.632,0,0,0,8.449,3.772L2.464.228A1.626,1.626,0,0,0,1.634,0Z" transform="translate(0 0)" fill="#c0c0c7" stroke="#c0c0c7" stroke-width="1"/>
    </g>
    <g id="Group_26" data-name="Group 26" transform="translate(0 80.461)">
      <path id="Path_28" data-name="Path 28" d="M18.17,0a1.631,1.631,0,0,0-1.406.8L1.918,25.874,1.9,25.9c-2.723,4.828-2.518,10.137.593,15.355a25.23,25.23,0,0,0,5.4,6.3A1.632,1.632,0,0,0,9.918,45a22.261,22.261,0,0,1-4.665-5.484C2.788,35.331,2.614,31.3,4.736,27.522L19.573,2.464A1.632,1.632,0,0,0,18.17,0Z" transform="translate(0 0)" fill="#c0c0c7" stroke="#c0c0c7" stroke-width="1"/>
    </g>
    <g id="Group_27" data-name="Group 27" transform="translate(60.226 128.002)">
      <path id="Path_29" data-name="Path 29" d="M34.412,0a1.631,1.631,0,0,0-1.406.8L19.147,24.2c-2.566,4.334-6.076,6.529-10.435,6.529l-.244,0A15.013,15.013,0,0,1,2.4,29.282,1.632,1.632,0,1,0,.869,32.167a18.328,18.328,0,0,0,7.537,1.827c3.943.077,9.492-1.277,13.549-8.128l13.859-23.4A1.633,1.633,0,0,0,34.412,0Z" transform="translate(0 0)" fill="#c0c0c7" stroke="#c0c0c7" stroke-width="1"/>
    </g>
    <g id="Group_28" data-name="Group 28" transform="translate(68.547 116.212)">
      <path id="Path_30" data-name="Path 30" d="M13.545,0a1.624,1.624,0,0,0-.8.211C4.987,4.591,1.973,10.294.809,14.308a18.569,18.569,0,0,0-.641,7.919,1.632,1.632,0,0,0,3.21-.6,15.688,15.688,0,0,1,.611-6.568C5.465,10.143,8.95,6.1,14.348,3.053A1.632,1.632,0,0,0,13.545,0Z" transform="translate(0 0)" fill="#c0c0c7" stroke="#c0c0c7" stroke-width="1"/>
    </g>
    <g id="Group_29" data-name="Group 29" transform="translate(16.361 54.326)">
      <path id="Path_31" data-name="Path 31" d="M9.182,0A1.632,1.632,0,0,0,7.714.918C-1.32,19.49-2.425,38.687,4.431,57.978A12.371,12.371,0,0,0,7.98,63.253,1.632,1.632,0,1,0,10,60.69a9.266,9.266,0,0,1-2.494-3.8c-.085-.24-.169-.48-.252-.72a19.945,19.945,0,0,0,5.408-3.856c2.96-2.95,6.512-8.335,6.624-17.242.113-8.988,6.6-25.243,6.663-25.407a1.632,1.632,0,0,0-.8-2.076L9.9.164A1.637,1.637,0,0,0,9.182,0ZM6.244,53.021C1.292,36.4,2.534,19.873,9.95,3.821L22.371,9.863c-.633,1.666-1.726,4.649-2.837,8.169-2.278,7.217-3.459,12.934-3.51,16.994-.078,6.2-1.946,11.2-5.552,14.857A16.94,16.94,0,0,1,6.244,53.021Z" transform="translate(0 0)" fill="#c0c0c7" stroke="#c0c0c7" stroke-width="1"/>
    </g>
    <g id="Group_30" data-name="Group 30" transform="translate(42.882 52.98)">
      <path id="Path_32" data-name="Path 32" d="M1.633,0A1.632,1.632,0,0,0,.8,3.036L7.934,7.261A1.632,1.632,0,0,0,9.6,4.452L2.464.228A1.628,1.628,0,0,0,1.633,0Z" transform="translate(0 0)" fill="#c0c0c7" stroke="#c0c0c7" stroke-width="1"/>
    </g>
    <g id="Group_31" data-name="Group 31" transform="translate(99.027 85.802)">
      <path id="Path_33" data-name="Path 33" d="M1.634,0A1.632,1.632,0,0,0,.8,3.037L7.934,7.261A1.632,1.632,0,1,0,9.6,4.452L2.464.228A1.624,1.624,0,0,0,1.634,0Z" transform="translate(0 0)" fill="#c0c0c7" stroke="#c0c0c7" stroke-width="1"/>
    </g>
    <g id="Group_32" data-name="Group 32" transform="translate(16.705 79.229)">
      <path id="Path_34" data-name="Path 34" d="M1.631,0a1.632,1.632,0,0,0-.161,3.256l5.758.578a87.721,87.721,0,0,0,.34,11.828L1.9,15.65h0a1.632,1.632,0,0,0,0,3.264l7.489.014a1.633,1.633,0,0,0,1.622-1.842,84.388,84.388,0,0,1-.43-14.6A1.632,1.632,0,0,0,9.11.742L1.8.008A1.579,1.579,0,0,0,1.631,0Z" transform="translate(0 0)" fill="#c0c0c7" stroke="#c0c0c7" stroke-width="1"/>
    </g>
  </g>
</svg>
