<svg xmlns="http://www.w3.org/2000/svg" width="128.855" height="140.396" viewBox="0 0 128.855 140.396">
  <g id="ast" transform="translate(133.275 1040.7) rotate(-139)">
    <g id="Group_33" data-name="Group 33" transform="translate(678.775 603.509) rotate(30)">
      <g id="Group_8" data-name="Group 8" transform="translate(6.504 5.995)">
        <path id="Path_10" data-name="Path 10" d="M13.933,35.725a1.228,1.228,0,0,1-.308-.039A18.144,18.144,0,0,1,.687,13.209,18.053,18.053,0,0,1,23.039.694a18.051,18.051,0,0,1,12.7,21.894,1.233,1.233,0,0,1-.3.546l-.515.542a42.485,42.485,0,0,1-20.7,12.013A1.24,1.24,0,0,1,13.933,35.725Zm4.1-33.247a15.335,15.335,0,0,0-7.217,1.785,15.678,15.678,0,0,0,3.129,28.954A40.021,40.021,0,0,0,33.136,21.976l.289-.3A15.569,15.569,0,0,0,31.631,10.1,15.843,15.843,0,0,0,18.032,2.478ZM34.546,22.284h0Z" transform="translate(0 0)" fill="#c0c0c7" stroke="#c0c0c7" stroke-width="1"/>
      </g>
      <g id="Group_9" data-name="Group 9" transform="translate(0.235 0)">
        <path id="Path_11" data-name="Path 11" d="M18.93,48.817a1.229,1.229,0,0,1-.308-.039A24.8,24.8,0,0,1,.963,17.978,24.686,24.686,0,0,1,31.684,1,24.683,24.683,0,0,1,48.847,30.878a1.234,1.234,0,0,1-.372.615L41.548,37.7a42.3,42.3,0,0,1-15.207,8.766l-7.03,2.292A1.234,1.234,0,0,1,18.93,48.817ZM24.665,2.468A21.893,21.893,0,0,0,14.5,4.961a22.331,22.331,0,0,0,4.4,41.336l6.682-2.179A39.849,39.849,0,0,0,39.9,35.86l6.642-5.951A22.214,22.214,0,0,0,31,3.375,22.747,22.747,0,0,0,24.665,2.468ZM47.651,30.574h0Z" transform="translate(0 0)" fill="#c0c0c7" stroke="#c0c0c7" stroke-width="1"/>
      </g>
      <g id="Group_11" data-name="Group 11" transform="translate(24.713 66.324)">
        <path id="Path_13" data-name="Path 13" d="M32.594,55.419a1.234,1.234,0,0,1-1.063-.605L.172,1.863A1.234,1.234,0,1,1,2.3.605L33.654,53.557a1.235,1.235,0,0,1-1.061,1.863Z" transform="translate(0 0)" fill="#c0c0c7" stroke="#c0c0c7" stroke-width="1"/>
      </g>
      <g id="Group_12" data-name="Group 12" transform="translate(46.652 29.329)">
        <path id="Path_14" data-name="Path 14" d="M30.363,32.148a1.232,1.232,0,0,1-.945-.439c-.085-.1-8.6-10.178-14.456-13.676a1.234,1.234,0,1,1,1.266-2.118c5.227,3.124,12.086,10.754,14.338,13.343l8.528-6.044A54.219,54.219,0,0,0,26.918,11.141,48.226,48.226,0,0,0,14.407,4.753,39.4,39.4,0,0,0,1.3,2.477,1.234,1.234,0,1,1,1.171.013a41.3,41.3,0,0,1,14.024,2.4A50.7,50.7,0,0,1,28.345,9.128,57.094,57.094,0,0,1,41.831,22.785a1.234,1.234,0,0,1-.293,1.72L31.076,31.92A1.229,1.229,0,0,1,30.363,32.148Z" transform="translate(0 0)" fill="#c0c0c7" stroke="#c0c0c7" stroke-width="1"/>
      </g>
      <g id="Group_13" data-name="Group 13" transform="translate(56.041 101.105)">
        <path id="Path_15" data-name="Path 15" d="M1.235,7.529a1.234,1.234,0,0,1-.63-2.3L9.151.172A1.234,1.234,0,0,1,10.409,2.3L1.863,7.357A1.227,1.227,0,0,1,1.235,7.529Z" transform="translate(0 0)" fill="#c0c0c7" stroke="#c0c0c7" stroke-width="1"/>
      </g>
      <g id="Group_14" data-name="Group 14" transform="translate(18.023 86.283)">
        <path id="Path_16" data-name="Path 16" d="M9.061,15.885A7.656,7.656,0,0,1,2.1,11.432L.113,7.1a1.234,1.234,0,1,1,2.242-1.03L4.345,10.4a5.177,5.177,0,0,0,9.409-4.323l-1.989-4.33A1.234,1.234,0,0,1,14.007.719L16,5.049A7.645,7.645,0,0,1,9.061,15.885Z" transform="translate(0 0)" fill="#c0c0c7" stroke="#c0c0c7" stroke-width="1"/>
      </g>
      <g id="Group_15" data-name="Group 15" transform="translate(75.78 51.594)">
        <path id="Path_17" data-name="Path 17" d="M9.6,16.837a7.639,7.639,0,0,1-6.148-3.085L.24,9.38A1.234,1.234,0,0,1,2.228,7.918l3.214,4.368a5.177,5.177,0,0,0,8.31-6.177L10.7,1.965A1.234,1.234,0,0,1,12.69.5l3.046,4.139A7.642,7.642,0,0,1,9.6,16.837Z" transform="translate(0 0)" fill="#c0c0c7" stroke="#c0c0c7" stroke-width="1"/>
      </g>
      <g id="Group_16" data-name="Group 16" transform="translate(28.053 44.209)">
        <path id="Path_18" data-name="Path 18" d="M14.022,37.524A2.113,2.113,0,0,1,12.2,36.489L.295,16.384a2.115,2.115,0,0,1,.741-2.894L23.319.294a2.114,2.114,0,0,1,2.893.741l11.907,20.1a2.115,2.115,0,0,1-.741,2.894L15.095,37.23A2.1,2.1,0,0,1,14.022,37.524ZM2.6,15.433,14.143,34.926,35.815,22.092,24.271,2.6ZM36.12,21.911Z" transform="translate(0 0)" fill="#c0c0c7" stroke="#c0c0c7" stroke-width="1"/>
      </g>
      <g id="Group_17" data-name="Group 17" transform="translate(51.705 110.616)">
        <path id="Path_19" data-name="Path 19" d="M7.97,24.882a2.19,2.19,0,0,1-.543-.069A2.151,2.151,0,0,1,6.1,23.82L.3,14.03a2.169,2.169,0,0,1,.76-2.967L19.231.3a2.169,2.169,0,0,1,2.968.76l6.058,10.23a1.657,1.657,0,0,1-.58,2.267h0L9.068,24.58A2.149,2.149,0,0,1,7.97,24.882ZM2.579,13.032,8.07,22.3,25.72,11.851,20.229,2.579ZM27.048,12.5h0Zm-.629-1.061h0Z" transform="translate(0 0)" fill="#c0c0c7" stroke="#c0c0c7" stroke-width="1"/>
      </g>
      <g id="Group_18" data-name="Group 18" transform="translate(77.506 95.422)">
        <path id="Path_20" data-name="Path 20" d="M7.787,25.071a1.674,1.674,0,0,1-.413-.052,1.644,1.644,0,0,1-1.014-.76L.3,14.029a2.169,2.169,0,0,1,.76-2.967L19.231.3a2.168,2.168,0,0,1,2.967.76l5.8,9.79a2.169,2.169,0,0,1-.76,2.968L8.628,24.84A1.645,1.645,0,0,1,7.787,25.071ZM2.579,13.031,8.069,22.3,25.719,11.85l-5.49-9.272Z" transform="translate(0 0)" fill="#c0c0c7" stroke="#c0c0c7" stroke-width="1"/>
      </g>
      <g id="Group_19" data-name="Group 19" transform="translate(61.503 45.895)">
        <path id="Path_21" data-name="Path 21" d="M31.992,54.4A1.233,1.233,0,0,1,30.93,53.8L.172,1.863A1.234,1.234,0,0,1,2.3.605L33.053,52.541A1.234,1.234,0,0,1,31.992,54.4Z" transform="translate(0 0)" fill="#c0c0c7" stroke="#c0c0c7" stroke-width="1"/>
      </g>
      <g id="Group_20" data-name="Group 20" transform="translate(60.741 88.297)">
        <path id="Path_22" data-name="Path 22" d="M15.864,31.637a1.234,1.234,0,0,1-1.063-.605L.66,7.153a4.739,4.739,0,0,1,8.156-4.83l12.969,21.9a1.234,1.234,0,0,1-2.123,1.257L6.693,3.581A2.272,2.272,0,0,0,2.784,5.9L16.925,29.774a1.234,1.234,0,0,1-1.061,1.863Z" transform="translate(0 0)" fill="#c0c0c7" stroke="#c0c0c7" stroke-width="1"/>
      </g>
      <g id="Group_21" data-name="Group 21" transform="translate(30.907 54.512)">
        <path id="Path_23" data-name="Path 23" d="M1.235,11.3A1.234,1.234,0,0,1,.605,9L15.519.172A1.234,1.234,0,1,1,16.776,2.3L1.863,11.127A1.23,1.23,0,0,1,1.235,11.3Z" transform="translate(0 0)" fill="#c0c0c7" stroke="#c0c0c7" stroke-width="1"/>
      </g>
      <g id="Group_22" data-name="Group 22" transform="translate(35.313 63.961)">
        <path id="Path_24" data-name="Path 24" d="M1.235,7.38a1.234,1.234,0,0,1-.63-2.3L8.9.172A1.234,1.234,0,1,1,10.157,2.3L1.863,7.208A1.228,1.228,0,0,1,1.235,7.38Z" transform="translate(0 0)" fill="#c0c0c7" stroke="#c0c0c7" stroke-width="1"/>
      </g>
      <g id="Group_23" data-name="Group 23" transform="translate(60.742 33.362)">
        <path id="Path_25" data-name="Path 25" d="M1.233,6.963A1.234,1.234,0,0,1,.149,5.142L2.579.647A1.234,1.234,0,0,1,4.75,1.821L2.32,6.316A1.235,1.235,0,0,1,1.233,6.963Z" transform="translate(0 0)" fill="#c0c0c7" stroke="#c0c0c7" stroke-width="1"/>
      </g>
      <g id="Group_24" data-name="Group 24" transform="translate(51.598 60.716)">
        <path id="Path_26" data-name="Path 26" d="M3.576,7.14a3.568,3.568,0,1,1,1.814-.5A3.573,3.573,0,0,1,3.576,7.14ZM3.568,2.467a1.1,1.1,0,1,0,.951.541h0A1.1,1.1,0,0,0,3.568,2.467Z" transform="translate(0 0)" fill="#c0c0c7" stroke="#c0c0c7" stroke-width="1"/>
      </g>
      <g id="Group_25" data-name="Group 25" transform="translate(69.845 90.134)">
        <path id="Path_27" data-name="Path 27" d="M1.235,5.147a1.234,1.234,0,0,1-.63-2.3L5.13.172A1.234,1.234,0,0,1,6.387,2.3L1.863,4.975A1.229,1.229,0,0,1,1.235,5.147Z" transform="translate(0 0)" fill="#c0c0c7" stroke="#c0c0c7" stroke-width="1"/>
      </g>
      <g id="Group_26" data-name="Group 26" transform="translate(0 38.458)">
        <path id="Path_28" data-name="Path 28" d="M13.736,36.216a1.233,1.233,0,0,1-1.063-.605L1.45,16.656l-.013-.023c-2.058-3.65-1.9-7.663.448-11.608A19.073,19.073,0,0,1,5.967.266,1.234,1.234,0,0,1,7.5,2.2,16.828,16.828,0,0,0,3.971,6.347c-1.863,3.161-1.995,6.21-.39,9.064L14.8,34.353a1.234,1.234,0,0,1-1.06,1.862Z" transform="translate(0 0)" fill="#c0c0c7" stroke="#c0c0c7" stroke-width="1"/>
      </g>
      <g id="Group_27" data-name="Group 27" transform="translate(45.529 13.034)">
        <path id="Path_29" data-name="Path 29" d="M26.014,25.7a1.233,1.233,0,0,1-1.063-.605L14.474,7.4c-1.94-3.276-4.593-4.936-7.888-4.936l-.185,0a11.349,11.349,0,0,0-4.59,1.095A1.234,1.234,0,1,1,.657,1.383,13.855,13.855,0,0,1,6.355,0C9.336-.056,13.531.967,16.6,6.147L27.074,23.837A1.234,1.234,0,0,1,26.014,25.7Z" transform="translate(0 0)" fill="#c0c0c7" stroke="#c0c0c7" stroke-width="1"/>
      </g>
      <g id="Group_28" data-name="Group 28" transform="translate(51.819 29.838)">
        <path id="Path_30" data-name="Path 30" d="M10.239,17.809a1.228,1.228,0,0,1-.605-.16C3.77,14.339,1.491,10.027.611,6.993A14.038,14.038,0,0,1,.127,1.007a1.234,1.234,0,0,1,2.426.45,11.86,11.86,0,0,0,.462,4.965c1.115,3.72,3.75,6.774,7.831,9.079a1.234,1.234,0,0,1-.608,2.308Z" transform="translate(0 0)" fill="#c0c0c7" stroke="#c0c0c7" stroke-width="1"/>
      </g>
      <g id="Group_29" data-name="Group 29" transform="translate(12.368 46.349)">
        <path id="Path_31" data-name="Path 31" d="M6.941,48.082a1.234,1.234,0,0,1-1.11-.694A54.006,54.006,0,0,1,3.349,4.253,9.352,9.352,0,0,1,6.033.265,1.234,1.234,0,1,1,7.56,2.2,7,7,0,0,0,5.675,5.079c-.064.181-.128.363-.19.544A15.078,15.078,0,0,1,9.573,8.539c2.237,2.23,4.923,6.3,5.008,13.034.086,6.795,4.988,19.083,5.037,19.206a1.234,1.234,0,0,1-.605,1.569L7.481,47.958A1.237,1.237,0,0,1,6.941,48.082ZM4.72,8a51.316,51.316,0,0,0,2.8,37.193l9.39-4.568c-.479-1.259-1.305-3.515-2.145-6.175-1.722-5.456-2.615-9.778-2.654-12.847-.059-4.686-1.471-8.465-4.2-11.231A12.806,12.806,0,0,0,4.72,8Z" transform="translate(0 0)" fill="#c0c0c7" stroke="#c0c0c7" stroke-width="1"/>
      </g>
      <g id="Group_30" data-name="Group 30" transform="translate(32.417 89.786)">
        <path id="Path_32" data-name="Path 32" d="M1.235,5.661a1.234,1.234,0,0,1-.63-2.3L6,.172A1.234,1.234,0,0,1,7.255,2.3L1.863,5.489A1.23,1.23,0,0,1,1.235,5.661Z" transform="translate(0 0)" fill="#c0c0c7" stroke="#c0c0c7" stroke-width="1"/>
      </g>
      <g id="Group_31" data-name="Group 31" transform="translate(74.86 64.975)">
        <path id="Path_33" data-name="Path 33" d="M1.235,5.661a1.234,1.234,0,0,1-.63-2.3L6,.172A1.234,1.234,0,1,1,7.255,2.3L1.862,5.489A1.228,1.228,0,0,1,1.235,5.661Z" transform="translate(0 0)" fill="#c0c0c7" stroke="#c0c0c7" stroke-width="1"/>
      </g>
      <g id="Group_32" data-name="Group 32" transform="translate(12.628 61.295)">
        <path id="Path_34" data-name="Path 34" d="M1.233,14.31a1.234,1.234,0,0,1-.122-2.462l4.353-.437A66.314,66.314,0,0,1,5.72,2.47l-4.283.008h0a1.234,1.234,0,0,1,0-2.468L7.093,0A1.234,1.234,0,0,1,8.319,1.393a63.794,63.794,0,0,0-.325,11.041,1.234,1.234,0,0,1-1.108,1.315l-5.53.555A1.193,1.193,0,0,1,1.233,14.31Z" transform="translate(0 0)" fill="#c0c0c7" stroke="#c0c0c7" stroke-width="1"/>
      </g>
    </g>
  </g>
</svg>
