<svg xmlns="http://www.w3.org/2000/svg" width="222.221" height="294.811" viewBox="0 0 222.221 294.811">
  <g id="house" transform="translate(-140.957 103.09)">
    <g id="Group_54" data-name="Group 54" transform="translate(140.33 -75.482)">
      <path id="Path_50" data-name="Path 50" d="M299.485,483.672V423.843h4.273a4.273,4.273,0,0,0,4.273-4.273V402.477a4.273,4.273,0,0,0-4.273-4.273h-4.491a80.757,80.757,0,0,0-18.679-47.708l16.76-16.761,3.389,3.389a4.27,4.27,0,0,0,6.043,0l9.8-9.8,5.526,5.525a4.27,4.27,0,0,0,6.043,0l12.82-12.819a4.266,4.266,0,0,0,0-6.043l-42.734-42.734a4.265,4.265,0,0,0-6.042,0l-12.82,12.82a4.267,4.267,0,0,0,0,6.043l5.526,5.525-9.8,9.8a4.266,4.266,0,0,0,0,6.042l3.389,3.388L260.256,333.1a80.928,80.928,0,0,0-122.945,65.1h-4.49a4.273,4.273,0,0,0-4.273,4.273V419.57a4.273,4.273,0,0,0,4.273,4.273h4.273v59.829H120v8.547H316.578v-8.547Zm-4.274-203.357L331.9,317.008l-6.777,6.778-36.692-36.692Zm-4.274,21.367,19.6,19.6-6.778,6.778-19.6-19.6Zm-6.41,19.231,6.777,6.778-16.554,16.554A83.277,83.277,0,0,0,267.443,338Zm-66.239,8.915A72.677,72.677,0,0,1,290.721,398.2H162.915a55.905,55.905,0,0,1,39.5-48.983l-2.434-8.189A64.487,64.487,0,0,0,154.368,398.2h-8.511a72.677,72.677,0,0,1,72.431-68.375Zm-81.2,76.922H299.485V415.3H137.094Zm8.547,17.093h145.3v59.829H145.64Zm0,0" transform="translate(-119.373 -225.015)" fill="#097ffd"/>
      <path id="Path_51" data-name="Path 51" d="M189.368,498H172.274A4.273,4.273,0,0,0,168,502.274v17.094a4.273,4.273,0,0,0,4.274,4.273h17.094a4.273,4.273,0,0,0,4.273-4.273V502.274A4.273,4.273,0,0,0,189.368,498Zm-4.273,17.094h-8.547v-8.547h8.547Zm0,0" transform="translate(-133.186 -290.624)" fill="#097ffd"/>
      <path id="Path_52" data-name="Path 52" d="M237.367,498H220.273A4.273,4.273,0,0,0,216,502.274v17.094a4.273,4.273,0,0,0,4.273,4.273h17.094a4.273,4.273,0,0,0,4.273-4.273V502.274A4.273,4.273,0,0,0,237.367,498Zm-4.274,17.094h-8.547v-8.547h8.547Zm0,0" transform="translate(-146.998 -290.624)" fill="#097ffd"/>
      <path id="Path_53" data-name="Path 53" d="M285.368,498H268.274A4.273,4.273,0,0,0,264,502.274v17.094a4.273,4.273,0,0,0,4.274,4.273h17.094a4.273,4.273,0,0,0,4.274-4.273V502.274A4.273,4.273,0,0,0,285.368,498Zm-4.274,17.094h-8.547v-8.547h8.547Zm0,0" transform="translate(-160.81 -290.624)" fill="#097ffd"/>
      <path id="Path_54" data-name="Path 54" d="M333.368,498H316.274A4.274,4.274,0,0,0,312,502.274v17.094a4.273,4.273,0,0,0,4.274,4.273h17.094a4.273,4.273,0,0,0,4.273-4.273V502.274A4.273,4.273,0,0,0,333.368,498Zm-4.274,17.094h-8.546v-8.547h8.546Zm0,0" transform="translate(-174.622 -290.624)" fill="#097ffd"/>
      <g id="Group_53" data-name="Group 53" transform="translate(0 0)">
        <g id="Group_161" data-name="Group 161" transform="translate(-19 4)">
          <path id="Path_56" data-name="Path 56" d="M408.456,249.924l-3.823,19.124a4.273,4.273,0,0,0,6.389,4.5l19.166-11.5,19.166,11.5a4.271,4.271,0,0,0,6.388-4.5l-3.822-19.121,11.2-11.207a4.268,4.268,0,0,0-3.021-7.289H445.426L433.849,212.13a4.443,4.443,0,0,0-7.328,0l-11.572,19.295H400.275a4.274,4.274,0,0,0-3.023,7.3Zm8.911-9.952a4.275,4.275,0,0,0,3.662-2.073l9.158-15.266,9.158,15.263a4.271,4.271,0,0,0,3.662,2.076h6.777L444.26,245.5a4.268,4.268,0,0,0-1.166,3.859l2.379,11.893L432.388,253.4a4.332,4.332,0,0,0-2.2-.606,4.287,4.287,0,0,0-2.2.612L414.9,261.253l2.379-11.891a4.268,4.268,0,0,0-1.167-3.859l-5.526-5.531Zm0,0" transform="translate(-270.794 -241.808)" fill="#097ffd"/>
        </g>
      </g>
      <path id="Path_57" data-name="Path 57" d="M154.187,261.282a25.668,25.668,0,0,0,25.257-21.368h8.931v-8.547h-8.931a25.611,25.611,0,0,0-50.513,0H120v8.547h8.931a25.668,25.668,0,0,0,25.257,21.368Zm0-8.547A17.077,17.077,0,0,1,137.7,239.914h32.974a17.077,17.077,0,0,1-16.487,12.821Zm0-34.188a17.077,17.077,0,0,1,16.487,12.82H137.7a17.077,17.077,0,0,1,16.487-12.82Zm0,0" transform="translate(-119.373 -207.751)" fill="#097ffd"/>
      <rect id="Rectangle_5" data-name="Rectangle 5" height="8" transform="translate(23.001 70.407)" fill="#097ffd"/>
      <rect id="Rectangle_7" data-name="Rectangle 7" width="15" transform="translate(23.001 70.407)" fill="#097ffd"/>
      <path id="Path_58" data-name="Path 58" d="M248.547,307.642h8.548v-8.547h8.547v-8.546h-8.547V282h-8.548v8.548H240v8.546h8.547Zm0,0" transform="translate(-162.904 -226.469)" fill="#097ffd"/>
    </g>
  </g>
</svg>
