<svg xmlns="http://www.w3.org/2000/svg" xmlns:xlink="http://www.w3.org/1999/xlink" width="63" height="63" viewBox="0 0 63 63">
  <defs>
    <clipPath id="clip-path">
      <rect id="Rectangle_4" data-name="Rectangle 4" width="34" height="34" transform="translate(-0.114 0.492)" fill="#fff"/>
    </clipPath>
  </defs>
  <g id="icon_house" data-name="icon house" transform="translate(-680 -324.383)">
    <circle id="Ellipse_791" data-name="Ellipse 791" cx="31.5" cy="31.5" r="31.5" transform="translate(680 324.383)" fill="#097ffd"/>
    <g id="Group_134" data-name="Group 134" transform="translate(696.114 336.891)">
      <g id="Group_54" data-name="Group 54" transform="translate(0 0)">
        <path id="Path_50" data-name="Path 50" d="M143.045,297.432V289.75h.549a.549.549,0,0,0,.549-.549v-2.195a.549.549,0,0,0-.549-.549h-.577a10.369,10.369,0,0,0-2.4-6.126l2.152-2.152.435.435a.548.548,0,0,0,.776,0l1.258-1.258.709.709a.548.548,0,0,0,.776,0l1.646-1.646a.548.548,0,0,0,0-.776l-5.487-5.487a.548.548,0,0,0-.776,0l-1.646,1.646a.548.548,0,0,0,0,.776l.709.709-1.258,1.258a.548.548,0,0,0,0,.776l.435.435-2.341,2.341a10.391,10.391,0,0,0-15.786,8.359h-.577a.549.549,0,0,0-.549.549V289.2a.549.549,0,0,0,.549.549h.549v7.682H120v1.1h25.24v-1.1Zm-.549-26.11,4.711,4.711-.87.87-4.711-4.711Zm-.549,2.743,2.516,2.516-.87.87-2.516-2.516Zm-.823,2.469.87.87-2.126,2.125a10.688,10.688,0,0,0-.938-.8Zm-8.5,1.145a9.331,9.331,0,0,1,9.3,8.779H125.51a7.178,7.178,0,0,1,5.072-6.289l-.313-1.052a8.28,8.28,0,0,0-5.857,7.341H123.32a9.331,9.331,0,0,1,9.3-8.779Zm-10.425,9.877h20.85v1.1h-20.85Zm1.1,2.195h18.656v7.682H123.292Zm0,0" transform="translate(-120 -263.779)" fill="#fff"/>
        <path id="Path_51" data-name="Path 51" d="M170.743,498h-2.195a.549.549,0,0,0-.549.549v2.195a.549.549,0,0,0,.549.549h2.195a.549.549,0,0,0,.549-.549v-2.195a.549.549,0,0,0-.549-.549Zm-.549,2.195h-1.1v-1.1h1.1Zm0,0" transform="translate(-163.61 -470.932)" fill="#fff"/>
        <path id="Path_52" data-name="Path 52" d="M218.744,498h-2.195a.549.549,0,0,0-.549.549v2.195a.549.549,0,0,0,.549.549h2.195a.549.549,0,0,0,.549-.549v-2.195a.549.549,0,0,0-.549-.549Zm-.549,2.195h-1.1v-1.1h1.1Zm0,0" transform="translate(-207.221 -470.932)" fill="#fff"/>
        <path id="Path_53" data-name="Path 53" d="M266.744,498h-2.195a.549.549,0,0,0-.549.549v2.195a.549.549,0,0,0,.549.549h2.195a.549.549,0,0,0,.549-.549v-2.195a.549.549,0,0,0-.549-.549Zm-.549,2.195h-1.1v-1.1h1.1Zm0,0" transform="translate(-250.831 -470.932)" fill="#fff"/>
        <path id="Path_54" data-name="Path 54" d="M314.743,498h-2.195a.549.549,0,0,0-.549.549v2.195a.549.549,0,0,0,.549.549h2.195a.549.549,0,0,0,.549-.549v-2.195a.549.549,0,0,0-.549-.549Zm-.549,2.195h-1.1v-1.1h1.1Zm0,0" transform="translate(-294.442 -470.932)" fill="#fff"/>
        <g id="Group_53" data-name="Group 53" transform="translate(0 0)">
          <g id="Group_52" data-name="Group 52" clip-path="url(#clip-path)">
            <path id="Path_55" data-name="Path 55" d="M246.327,367.1V366a8.421,8.421,0,0,0-1.175.083l.154,1.086a7.356,7.356,0,0,1,1.021-.072Zm0,0" transform="translate(-233.707 -351.003)" fill="#fff"/>
            <path id="Path_56" data-name="Path 56" d="M397.6,215.3l-.491,2.455a.549.549,0,0,0,.82.578l2.461-1.477,2.461,1.476a.548.548,0,0,0,.82-.578l-.491-2.455,1.438-1.439a.548.548,0,0,0-.388-.936h-1.884l-1.486-2.477a.57.57,0,0,0-.941,0l-1.486,2.477h-1.884a.549.549,0,0,0-.388.937Zm1.144-1.278a.549.549,0,0,0,.47-.266l1.176-1.96,1.176,1.96a.548.548,0,0,0,.47.267h.87l-.709.709a.548.548,0,0,0-.15.5l.305,1.527-1.68-1.008a.556.556,0,0,0-.283-.078.55.55,0,0,0-.283.079l-1.68,1.008.306-1.527a.548.548,0,0,0-.15-.5l-.709-.71Zm0,0" transform="translate(-370.76 -209.451)" fill="#fff"/>
          </g>
        </g>
        <path id="Path_57" data-name="Path 57" d="M124.39,216.584a3.3,3.3,0,0,0,3.243-2.744h1.147v-1.1h-1.147a3.288,3.288,0,0,0-6.486,0H120v1.1h1.147a3.3,3.3,0,0,0,3.243,2.744Zm0-1.1a2.193,2.193,0,0,1-2.117-1.646h4.234a2.193,2.193,0,0,1-2.117,1.646Zm0-4.39a2.193,2.193,0,0,1,2.117,1.646h-4.234a2.193,2.193,0,0,1,2.117-1.646Zm0,0" transform="translate(-120 -209.269)" fill="#fff"/>
        <rect id="Rectangle_5" data-name="Rectangle 5" height="1" transform="translate(2.886 9.492)" fill="#fff"/>
        <rect id="Rectangle_6" data-name="Rectangle 6" width="2" height="1" transform="translate(4.886 9.492)" fill="#fff"/>
        <rect id="Rectangle_7" data-name="Rectangle 7" width="2" transform="translate(2.886 9.492)" fill="#fff"/>
        <rect id="Rectangle_8" data-name="Rectangle 8" width="2" height="2" transform="translate(2.886 10.492)" fill="#fff"/>
        <path id="Path_58" data-name="Path 58" d="M241.1,285.292h1.1v-1.1h1.1v-1.1h-1.1V282h-1.1v1.1H240v1.1h1.1Zm0,0" transform="translate(-229.026 -274.685)" fill="#fff"/>
      </g>
    </g>
  </g>
</svg>
