<svg xmlns="http://www.w3.org/2000/svg" width="59.724" height="52.031" viewBox="0 0 59.724 52.031">
  <g id="LOGO" transform="translate(-485.239 -162.132)">
    <g id="LOGO_ICON" data-name="LOGO ICON" transform="translate(485.239 162.132)">
      <g id="Group_3" data-name="Group 3" transform="translate(11.035 23.338)">
        <path id="Path_2" data-name="Path 2" d="M208.462,376.727s.86-3.058,10.322-2.923,10.323,2.923,10.323,2.923a19.848,19.848,0,0,0,7.587-2.839c3.2-2.243-2.943-4.537-2.943-4.537s-5.255-2.177-14.967-2.177-17.319,2.105-18.653,4.664S206.108,376.213,208.462,376.727Z" transform="translate(-199.97 -362.71)" fill-rule="evenodd"/>
        <path id="Path_3" data-name="Path 3" d="M215.172,363.14a44.933,44.933,0,0,1,9.371-.726,44.926,44.926,0,0,1,9.371.726s-2.752-4.128-9.449-4.128S215.172,363.14,215.172,363.14Z" transform="translate(-205.728 -359.012)" fill-rule="evenodd"/>
        <path id="Path_4" data-name="Path 4" d="M216.19,380.315s.434-2.548,9.842-2.548,9.609,2.548,9.609,2.548-1.849,3.776-9.609,3.776S216.19,380.315,216.19,380.315Z" transform="translate(-207.159 -365.792)" fill-rule="evenodd"/>
      </g>
      <path id="Path_5" data-name="Path 5" d="M241.81,353.223l17.04-29.515,17.041,29.515a20.657,20.657,0,0,0-2.532-.956L258.85,327.138l-14.509,25.129a20.649,20.649,0,0,0-2.532.956Z" transform="translate(-229.472 -323.708)"/>
      <path id="Path_8" data-name="Path 8" d="M-4234.312,534.33l10.35,18.088h1.937l-11.134-19.382Z" transform="translate(4281.75 -500.387)"/>
      <path id="Path_5270" data-name="Path 5270" d="M-4222.026,534.33l-10.349,18.088h-1.937l11.134-19.382Z" transform="translate(4234.313 -500.387)"/>
    </g>
  </g>
</svg>
