<svg xmlns="http://www.w3.org/2000/svg" width="584.503" height="362.764" viewBox="0 0 584.503 362.764">
  <path id="Path_6209" data-name="Path 6209" d="M657.754,132.264c-2.084-.33-2.588,1.443-3.972,0,.531-2.3-.986-2.544-.662-4.634-1.758-.007-3.78.251-4.634-.662-1.1-7.062-3.907-12.422-5.3-19.2-2.617-.03-3.839-1.458-5.958-1.987-1.63,1.459-2.9,3.275-5.3,3.972-1.867-.12-.826-3.146-3.31-2.648-2.605,6.389-7.243,16.492-3.971,24.493-1.7,2.713-3.473,5.354-3.309,9.93-2.377-.549-3.2,1.493-4.635,0-.657,1.991-.489,4.806-2.648,5.295-6.865,1.216-14.53,4.3-21.846,5.958-3.5.8-7.152.215-9.929,1.986-3.211,2.048-4.323,6.769-6.62,9.93-1.594,2.2-4.884,2.534-3.971,5.958,3.058,1.06,2.483,4.607,2.648,6.62-6.246,9-17.865,4.616-27.8,9.267.187,3.124,2.182,4.439,3.309,6.62-8.531,11.548-20.832,19.328-34.422,25.817-2.1-2.755-8.751-.958-9.93-4.634,3.442-3.295,2.778-12.315,7.943-11.916-.64-8.628-1.772-16.763-7.281-20.521-4.337.518-3.744,5.965-7.282,7.282-2.638.433-1.9-2.517-1.987-4.634,7.584-1.958,2.5-13.661,3.972-17.211-1.746.2-1.708-1.382-1.986-2.649-7.135-.03-13.235-7.949-17.212-.661-.582,2.127,2.182.907,1.986,2.648-2.289-.524-2.794.736-3.971,1.324-.5,4.03,1.8,6.75-1.987,7.282-1.012-3.179,2.812-5.676,0-6.62-6.08,6.654-6.406,13.733-7.281,25.155,7.38,7.136,5.185,25-4.635,27.8-13.865-12.461-6.092-38.1-2.647-52.3-2.689,3.276-5.461,9.976-8.606,10.592,2.225-6.38,6.26-10.951,7.944-17.873,5.672,1.446,8.9-2.83,15.887-4.634,5.883.97,11.081-.053,15.225-.662-3-.532-3.809-3.253-3.309-7.282-3.535.1-6.174,2.761-9.267,1.324v-3.972c-9.638,1.073-14.636,7.288-23.17,5.958-1.119-5.364-8.7-6.463-10.592-3.971,1.018-4.279,4.477-6.116,6.62-9.268-6.541.08-8.845,4.394-11.916,7.945-4.527,2.534-9.79,4.331-13.9,7.281-.708-2.5-3.926.024-4.635-1.324.589-1.4,2.016-1.956,1.986-3.971-3.392-1.254-7.751,5.37-12.577,2.648,4.827-2.68,6.8-8.694,11.253-11.916,3.742-2.707,9.187-2.179,11.916-6.62-3.9-.77-10.115-.272-12.578-2.647-3.42,3.522-10.339,3.156-11.253-1.324-5.69,1.75-10.495-6.367-15.888-1.324-2.743-1.008-4.779-2.723-8.606-2.648-2.886-1.968-.174-9.535-5.3-9.267-1.519.687.313,4.726-1.325,5.295C283.007,123.5,200.239,106.534,125.523,87.25c3.078,4.848.29,10.706,1.324,14.563-3.152-2.507-1.585-4.595-1.324-6.619-2.664-.458-1.625,2.787-3.971,2.647C114.743,96.705,111,92.507,105.664,89.9c-.478,6.17-1.041,16.49,1.986,21.183a3.72,3.72,0,0,0-2.648.662c-.707,2.473,1.643,1.887,1.324,3.971-2.736,1.736-3.721,5.151-.662,6.62-2.125-.58-1.372,1.717-2.648,1.986-4.6,15.042-9.964,29.313-18.536,40.38.179,3.931-.721,6.781-1.324,9.93,3.966,10.262-4.82,18.324-7.943,25.817,7.47,4.745.524,13.468,1.324,19.859.346,2.766,5.076,6.948,5.3,11.254.215,4.206.616,5.512,3.31,7.944-3.5,5.67-.084,13.027,3.972,15.225-.367,2.281-3.044,2.253-3.31,4.634.269,8.7,8.7,15.6,9.267,23.17.26,3.49-3.171,6.018-.662,9.267,11.583-.329,12.84,9.667,21.183,12.577.393,2.111-1.242,2.047,0,3.309,7.71,1.779,10.452,8.525,9.93,18.535,8.118,2.916,19.284,2.782,28.465,4.634-.009,1.315-1.805.842-1.324,2.647,10.409,5.134,20.207,12.231,29.789,17.873,12.349,7.274,26.934,9.044,45.677,11.255.336-2.312.3-5,1.324-6.62a198.1,198.1,0,0,0,19.86,2.648c4.583,5.787,8.078,12.663,15.225,15.887,3.738,4,2.554,8.343,3.971,13.9,1.875,7.351,11.189,9.072,17.211,13.239,4.732-2.992,4.132-11.315,11.254-11.915,14.019,1.649,20.871,10.463,23.17,23.83,4.771,2.511,5.993,8.57,10.591,11.255-2.923,16.656,15.848,20.721,27.141,23.168-2.09-8.813-1.63-17.528-.662-27.141,11.172-7.584,24.784-12.728,33.761-22.507,9.426-7.879,26.017-2.041,35.747-1.987-.376-3.723-4.429-.116-5.3-2.648,4.15-3.842,7.454,2.611,11.254,3.311.149,1.251-.746,1.46-.662,2.647,2.3,1.005,4.106,2.514,7.282,2.648,1.639-1.23,2.489-3.249,5.3-3.309,2.185,1.317-1.642,2.827,0,3.309,5.248-1.63,1.179-5.046,5.3-6.62,1,3.148,9.906,7.346,10.592,2.649-1.857-2.556-7.344-1.482-8.606-4.635,2.076-1.743,4.693-2.329,3.31-7.282-2.938-.29-1.637,3.659-5.3,2.649,2.95-7.881,9.851-6.885,19.2-7.283,1.305-1.122.249-4.606,2.648-4.634,1.389,1.091,3.2,4.844.662,5.958,10.941-3.574,26.876-6.5,32.436,3.971,5.866-.49,11.209-2.911,11.916-6.619,11.332-1.182,10.6,9.7,19.859,10.592,5.545,4.519-.772,16.846,4.634,21.183,1.622-1.848-.508-4.457,0-4.634.99.113,2.443-.237,2.647.662.274,3.142-2.5,3.237-2.647,5.957a56.558,56.558,0,0,1,8.6,13.24c1.872.546,1.716-.934,3.311-.662,1.352,2.178,2.061,5,3.309,7.282,5.813-1.33,8.291,5.025,9.93,9.93,2.513-.815,6.849-3.276,8.606-2.647-.881,3.982-7.507,5.719-7.282,8.605,4.613-3.332,8.847-7.042,9.93-13.9-2.352-1.029-.4,2.248-1.987,1.986,5-17.351-4.559-29.235-10.591-39.718.009-1.316,1.806-.842,1.324-2.649-10.016-8.973-20.587-26.938-14.563-44.353,1.4-4.048,5.879-6.32,5.957-10.591,6.3-2.082,7.946-8.824,13.241-11.915-.377-8.762,4.388-12.382,11.915-13.241-.588-13.108,16.159-10.61,16.55-19.2-.518,1.163-5.73,1.969-6.62,0,2.762,2.208,4.616-3.551,1.987-4.634,4.28,1.23,8.868-.691,9.267-5.3-1.056-1.81-4.04,1.545-5.3-.662,2.356.149,3.966-.447,4.635-1.986l-.331-.993.992.331a103.371,103.371,0,0,1-7.281-13.9c-1.5.006-3.195-.175-4.187.341,2.629-2.187-3.041-4.757-1.771-6.3.664,0,.788.536,1.324.662-.382-4.914-1.855-8.736-5.295-10.593,1.78.457,1.279-1.368,1.986-1.986-4.6-2.944-5.314-15.224-.662-15.888-3,2.769,1.916,6.079-1.323,9.269,2.969.038,1.091.94,1.323,4.633,3.523.229,2.8,4.7,5.3,5.957.969-2.355-2.128-3.966-.662-4.633,6.948,2.443-1.271,12.126,3.972,15.888,1.316-8.541,7.447-16.557,3.971-25.817-4.641-1.317-5.3-6.612-7.944-9.93a10.073,10.073,0,0,0,8.606,4.634c.27,1.6-1.209,1.439-.662,3.31a24.5,24.5,0,0,0,6.62-23.169c-.784-1.63-2.5,1.356-3.31-.662,1.35-.194,1.3-1.791,2.648-1.986l-.331-1.787.993-1.522c4.675-9.447,18.314-9.93,26.478-15.888.827-1.987-.316-3.31,2.648-3.971.378,2.143-.2,3.33-1.324,3.971,3.006-1.628,4.451-4.817,8.605-5.3-.1-3.432-1.027-6.033-4.633-5.958.313,2.114,3.394,1.46,3.309,3.971-5.728,5.072-6.9-6.159-11.253-4.634.406-5.839-.342-13.832,2.647-22.507,3.685.635,6.167-3.393,9.268-5.3.484-2.3-.723-6.279,0-6.619.776.988,2.751.779,2.647,2.647-1.567,1-2.443,1-1.324,3.31,3.333-.795,1.792-5.335,3.972-7.282-.185,1.729-.224,3.313,1.986,2.648,1.254-3.9-.8-1.851-1.323-3.972C654.138,147.309,663.884,137.217,657.754,132.264Z" transform="translate(-75.213 -87.25)" fill="#c1c1c7" fill-rule="evenodd"/>
</svg>
